HIERARCHY
ROOT Hips
{
	OFFSET 0.00000 0.00000 0.00000
	CHANNELS 6 Xposition Yposition Zposition Zrotation Yrotation Xrotation 
	JOINT LHipJoint
	{
		OFFSET 0 0 0
		CHANNELS 3 Zrotation Yrotation Xrotation
		JOINT LeftUpLeg
		{
			OFFSET 1.43652 -1.81092 0.91346
			CHANNELS 3 Zrotation Yrotation Xrotation
			JOINT LeftLeg
			{
				OFFSET 2.45984 -6.75837 0.00000
				CHANNELS 3 Zrotation Yrotation Xrotation
				JOINT LeftFoot
				{
					OFFSET 2.63718 -7.24559 0.00000
					CHANNELS 3 Zrotation Yrotation Xrotation
					JOINT LeftToeBase
					{
						OFFSET 0.19690 -0.54098 2.12239
						CHANNELS 3 Zrotation Yrotation Xrotation
						End Site
						{
							OFFSET 0.00000 -0.00000 1.10116
						}
					}
				}
			}
		}
	}
	JOINT RHipJoint
	{
		OFFSET 0 0 0
		CHANNELS 3 Zrotation Yrotation Xrotation
		JOINT RightUpLeg
		{
			OFFSET -1.35116 -1.81092 0.91345
			CHANNELS 3 Zrotation Yrotation Xrotation
			JOINT RightLeg
			{
				OFFSET -2.55576 -7.02189 0.00000
				CHANNELS 3 Zrotation Yrotation Xrotation
				JOINT RightFoot
				{
					OFFSET -2.61938 -7.19669 0.00000
					CHANNELS 3 Zrotation Yrotation Xrotation
					JOINT RightToeBase
					{
						OFFSET -0.32509 -0.89318 2.23646
						CHANNELS 3 Zrotation Yrotation Xrotation
						End Site
						{
							OFFSET -0.00000 -0.00000 1.19625
						}
					}
				}
			}
		}
	}
	JOINT LowerBack
	{
		OFFSET 0 0 0
		CHANNELS 3 Zrotation Yrotation Xrotation
		JOINT Spine
		{
			OFFSET 0.05193 2.08077 -0.11958
			CHANNELS 3 Zrotation Yrotation Xrotation
			JOINT Spine1
			{
				OFFSET 0.04960 2.08447 0.01967
				CHANNELS 3 Zrotation Yrotation Xrotation
				JOINT Neck
				{
					OFFSET 0 0 0
					CHANNELS 3 Zrotation Yrotation Xrotation
					JOINT Neck1
					{
						OFFSET -0.10699 1.82066 0.27584
						CHANNELS 3 Zrotation Yrotation Xrotation
						JOINT Head
						{
							OFFSET 0.14949 1.84747 -0.32279
							CHANNELS 3 Zrotation Yrotation Xrotation
							End Site
							{
								OFFSET 0.04969 1.88916 -0.14562
							}
						}
					}
				}
				JOINT LeftShoulder
				{
					OFFSET 0 0 0
					CHANNELS 3 Zrotation Yrotation Xrotation
					JOINT LeftArm
					{
						OFFSET 3.73629 1.27211 -0.12847
						CHANNELS 3 Zrotation Yrotation Xrotation
						JOINT LeftForeArm
						{
							OFFSET 5.10995 -0.00000 0.00000
							CHANNELS 3 Zrotation Yrotation Xrotation
							JOINT LeftHand
							{
								OFFSET 3.21207 -0.00000 0.00000
								CHANNELS 3 Zrotation Yrotation Xrotation
								JOINT LeftFingerBase
								{
									OFFSET 0 0 0
									CHANNELS 3 Zrotation Yrotation Xrotation
									JOINT LeftHandIndex1
									{
										OFFSET 0.63349 -0.00000 0.00000
										CHANNELS 3 Zrotation Yrotation Xrotation
										End Site
										{
											OFFSET 0.51074 -0.00000 0.00000
										}
									}
								}
								JOINT LThumb
								{
									OFFSET 0 0 0
									CHANNELS 3 Zrotation Yrotation Xrotation
									End Site
									{
										OFFSET 0.51853 -0.00000 0.51853
									}
								}
							}
						}
					}
				}
				JOINT RightShoulder
				{
					OFFSET 0 0 0
					CHANNELS 3 Zrotation Yrotation Xrotation
					JOINT RightArm
					{
						OFFSET -3.70251 1.29541 -0.35354
						CHANNELS 3 Zrotation Yrotation Xrotation
						JOINT RightForeArm
						{
							OFFSET -5.25109 -0.00000 0.00000
							CHANNELS 3 Zrotation Yrotation Xrotation
							JOINT RightHand
							{
								OFFSET -3.28364 -0.00000 0.00000
								CHANNELS 3 Zrotation Yrotation Xrotation
								JOINT RightFingerBase
								{
									OFFSET 0 0 0
									CHANNELS 3 Zrotation Yrotation Xrotation
									JOINT RightHandIndex1
									{
										OFFSET -0.59974 -0.00000 0.00000
										CHANNELS 3 Zrotation Yrotation Xrotation
										End Site
										{
											OFFSET -0.48353 -0.00000 0.00000
										}
									}
								}
								JOINT RThumb
								{
									OFFSET 0 0 0
									CHANNELS 3 Zrotation Yrotation Xrotation
									End Site
									{
										OFFSET -0.49091 -0.00000 0.49091
									}
								}
							}
						}
					}
				}
			}
		}
	}
}
MOTION
Frames: 6
Frame Time: 0.0465116
0.00 0.00 0.00 0 0 0 0 0 0 -21 0 0 0 0 0 0 0 0 0 0 0 0 0 0 21 0 0 0 0 0 0 0 0 0 0 0 0 0 0 0 0 0 0 0 0 0 0 -16 0 0 21 0 0 11 0 0 0 -8 0 0 0 0 0 0 0 0 0 0 0 0 0 0 0 0 0 0 0 0 8 0 0 0 0 0 0 0 0 0 0 0 0 0 0 0 0 0
0.00 0.00 0.00 -173.5630 -76.9391 -175.4110 0.0000 0.0000 0.0000 -4.6670 2.9261 -26.9585 3.1258 10.8960 31.9300 0.3185 3.0524 -12.2288 0.3030 -3.5393 -9.7839 0.0000 0.0000 0.0000 11.4294 16.4828 -33.6245 -5.9275 -14.3577 44.6899 -1.1628 3.9957 -19.4474 -0.0562 1.5293 -4.2064 -0.1427 1.2059 14.5274 2.2894 1.5365 2.8163 2.2125 0.6982 -5.2287 -5.2194 9.3807 -17.3086 3.0263 13.3509 8.4727 2.8832 6.5882 4.7547 -0.0000 -0.0000 0.0000 -99.3355 -26.6964 85.0203 38.1169 -46.9138 -17.0509 -0.0000 0.0000 -14.5747 20.8413 8.8967 3.3694 -7.1250 0.0000 -0.0000 -5.2911 39.4357 0.7279 -0.0000 -0.0000 0.0000 83.3905 12.3047 50.2864 -83.0770 59.8181 -54.0081 0.0000 -0.0000 -59.9224 -23.2938 -1.9057 0.8203 7.1250 -0.0000 -0.0000 2.6462 -32.0472 0.8396
0.00 0.00 0.00 -176.4790 -76.3398 -173.3820 0.0000 0.0000 0.0000 -5.9534 4.2665 -27.2288 3.3291 11.2096 32.9901 0.3896 1.7556 -12.5627 0.2923 -3.4764 -9.6080 0.0000 0.0000 0.0000 10.2350 16.4993 -33.2450 -6.0284 -14.4558 45.0956 -1.1709 4.4646 -19.4598 -0.0645 1.6390 -4.5089 -0.1137 0.9427 15.7906 2.3572 1.1685 3.1588 2.3326 0.5015 -5.5396 -4.8567 9.8879 -17.1694 2.2873 14.0318 8.4298 2.6505 6.8786 4.7690 0.0000 -0.0000 0.0000 -103.2679 -31.3682 90.0865 40.7576 -48.5124 -19.0048 -0.0000 0.0000 -12.3483 22.3343 7.4661 3.0557 -7.1250 0.0000 -0.0000 -3.8395 38.0182 0.6612 0.0000 -0.0000 0.0000 80.2336 14.4150 46.9091 -101.1028 59.5290 -69.6001 0.0000 -0.0000 -51.7386 -25.9776 2.7170 -1.3231 7.1250 -0.0000 -0.0000 0.4742 -26.9579 0.2077
0.00 0.00 0.00 -178.2070 -76.0534 -171.8220 0.0000 0.0000 0.0000 -7.0168 6.5870 -29.2474 3.6827 11.7257 34.7684 0.4759 -1.1929 -12.6717 0.3014 -3.5302 -9.7584 0.0000 0.0000 0.0000 9.0990 16.4035 -33.9878 -6.2690 -14.6841 46.0521 -1.2005 5.0213 -19.6568 -0.0738 1.7528 -4.8229 -0.3232 0.5419 16.1283 2.3815 0.5845 3.4326 2.5967 0.2076 -5.4089 -4.7674 10.4967 -16.8988 1.9820 14.8423 8.1173 2.5739 7.2667 4.6263 -0.0000 0.0000 0.0000 -109.0714 -36.4362 96.6695 42.4578 -49.4605 -20.2878 -0.0000 0.0000 -7.3180 18.0501 8.0613 2.6166 -7.1250 0.0000 -0.0000 -7.5687 38.3504 1.2480 -0.0000 0.0000 0.0000 77.3532 15.6324 41.2633 -117.8697 56.8514 -83.8808 0.0000 -0.0000 -44.3637 -26.4823 5.2784 -2.6241 7.1250 -0.0000 -0.0000 0.1525 -24.0867 0.0770
0.00 0.00 0.00 -179.8220 -75.8898 -170.2360 0.0000 0.0000 0.0000 -7.7349 7.2724 -30.6196 4.0060 12.1684 36.3304 0.5254 -2.1592 -13.1202 0.4762 -4.4257 -12.2774 0.0000 0.0000 0.0000 8.2030 16.1527 -35.0402 -6.6003 -14.9858 47.3457 -1.2400 5.4654 -19.9524 -0.0942 1.9795 -5.4491 -0.2459 -0.0451 16.4716 1.7348 -0.2311 3.7401 2.0336 -0.2043 -5.2304 -4.6043 11.6507 -16.3082 1.6122 16.3516 7.5641 2.4799 8.0082 4.3476 -0.0000 -0.0000 0.0000 -115.8415 -41.6408 108.4736 44.3017 -50.4218 -21.6992 -0.0000 0.0000 -3.0753 22.7437 7.4712 3.1200 -7.1250 0.0000 -0.0000 -3.4902 38.0517 0.5980 -0.0000 -0.0000 0.0000 73.9279 15.5688 35.1381 -133.3405 51.5560 -96.4686 0.0000 -0.0000 -35.4196 -28.1385 6.9422 -3.6986 7.1250 -0.0000 -0.0000 -0.9945 -22.1184 -0.5469
0.00 0.00 0.00 -197.8700 -95.6065 -152.5920 0.0000 0.0000 0.0000 -0.3179 -3.4629 -32.2761 3.4640 11.4107 33.6779 0.0721 -8.8487 -7.4791 0.3672 -3.8924 -10.7743 0.0000 0.0000 0.0000 15.7932 6.2964 -35.8421 -7.7123 -15.9036 51.5198 -1.7411 -2.4340 -25.9055 -0.0491 1.4301 -3.9330 1.3587 1.6181 18.5246 2.1981 2.2439 4.6671 1.0710 0.9716 -5.3779 -3.2579 14.9986 -16.6855 -3.0284 21.2272 8.9018 1.4762 10.0255 5.3266 -0.0000 -0.0000 0.0000 -105.9023 -36.5286 95.6433 39.5306 -47.7893 -18.0908 -0.0000 -0.0000 0.2345 33.7611 -1.9602 -1.3098 -7.1250 0.0000 -0.0000 5.5229 27.6096 -2.3445 -0.0000 -0.0000 0.0000 77.6060 9.2956 17.2080 -147.9404 42.5946 -107.2189 0.0000 -0.0000 -20.7261 -27.4479 15.8545 -8.0764 7.1250 -0.0000 -0.0000 0.1702 -12.2339 0.1303
